<svg width="24" height="23" viewBox="0 0 24 23" fill="none" xmlns="http://www.w3.org/2000/svg">
<path opacity="0.8" d="M19.2 0.867187C21.851 0.867187 24 3.01622 24 5.66719L24 17.6672C24 20.3182 21.851 22.4672 19.2 22.4672L4.8 22.4672C2.14903 22.4672 -1.8039e-06 20.3182 -1.68803e-06 17.6672L-1.16349e-06 5.66719C-1.04761e-06 3.01622 2.14903 0.867187 4.8 0.867187L19.2 0.867187Z" fill="#4EC3F5"/>
<circle cx="4.79998" cy="17.6673" r="1.2" fill="#4EC3F5"/>
<path d="M0 5.66724L24 5.66724L24 10.4672L-6.29444e-08 10.4672L0 5.66724Z" fill="#4EC3F5"/>
<circle cx="2.4" cy="2.4" r="2.4" transform="matrix(1 0 0 -1 18 18.8672)" fill="#4EC3F5"/>
<path d="M20.4 18.8673C21.9383 18.8673 23.2814 19.8326 24 21.2673V21.4673C24 22.0196 23.5523 22.4673 23 22.4673H17.8C17.2477 22.4673 16.8 22.0196 16.8 21.4673V21.2673C17.5186 19.8326 18.8617 18.8673 20.4 18.8673Z" fill="#4EC3F5"/>
</svg>
