<svg width="415" height="132" viewBox="0 0 415 132" fill="none" xmlns="http://www.w3.org/2000/svg">
<path d="M392.927 43.9023L413.184 20.5956L-1.56589 72.6228L-13.4843 94.8835L392.927 43.9023Z" fill="#4EC3F5"/>
<path d="M388.111 1.49329L413.084 19.8019L-1.60323 72.3251L-19.98 52.6855L388.111 1.49329Z" fill="#4EC3F5"/>
<path d="M-1.60323 72.3251L-1.56589 72.6228M-1.60323 72.3251L413.084 19.8019L388.111 1.49329L-19.98 52.6855L-1.60323 72.3251ZM-1.56589 72.6228L413.184 20.5956L392.927 43.9023L-13.4843 94.8835L-1.56589 72.6228Z" stroke="#4EC3F5" stroke-width="0.821848"/>
<g style="mix-blend-mode:multiply">
<path d="M206.755 87.0239L231 64.5L91.4427 81.7896L82.5048 103.122L206.755 87.0239Z" fill="#1E336B" fill-opacity="0.8"/>
<path d="M204.5 46.5L231 64.5L91.4427 81.7896L77.0384 62.805L204.5 46.5Z" fill="#1E336B" fill-opacity="0.8"/>
</g>
</svg>
