<svg width="24" height="26" viewBox="0 0 24 26" fill="none" xmlns="http://www.w3.org/2000/svg">
<path opacity="0.7" fill-rule="evenodd" clip-rule="evenodd" d="M7.20002 2.66719C6.3716 2.66719 5.70002 3.33876 5.70002 4.16719V7.76719C5.70002 8.26424 5.29708 8.66719 4.80002 8.66719C4.30297 8.66719 3.90002 8.26424 3.90002 7.76719V4.16719C3.90002 2.34465 5.37748 0.867188 7.20002 0.867188H16.8C18.6226 0.867188 20.1 2.34465 20.1 4.16719V7.76719C20.1 8.26424 19.6971 8.66719 19.2 8.66719C18.703 8.66719 18.3 8.26424 18.3 7.76719V4.16719C18.3 3.33876 17.6284 2.66719 16.8 2.66719H7.20002Z" fill="#4EC3F5"/>
<path opacity="0.7" d="M21.9384 21.9367C21.4826 24.167 19.5367 25.7671 17.2803 25.7671H6.71973C4.4633 25.7671 2.51744 24.167 2.06165 21.9367L0.0997465 12.3367C-0.508873 9.35863 1.74484 6.56714 4.75783 6.56714L19.2422 6.56714C22.2552 6.56714 24.5089 9.35863 23.9003 12.3367L21.9384 21.9367Z" fill="#4EC3F5"/>
<path d="M19.2422 6.56714H4.75783C2.07525 6.56714 -0.00544472 8.77995 1.0703e-05 11.3671H24C24.0054 8.77995 21.9247 6.56714 19.2422 6.56714Z" fill="#4EC3F5"/>
<path fill-rule="evenodd" clip-rule="evenodd" d="M8.40005 15.2671C8.89711 15.2671 9.30005 15.67 9.30005 16.1671L9.30005 20.9671C9.30005 21.4641 8.8971 21.8671 8.40005 21.8671C7.90299 21.8671 7.50005 21.4641 7.50005 20.9671L7.50005 16.1671C7.50005 15.67 7.90299 15.2671 8.40005 15.2671Z" fill="#4EC3F5"/>
<path fill-rule="evenodd" clip-rule="evenodd" d="M15.6 15.2671C16.0971 15.2671 16.5 15.67 16.5 16.1671L16.5 20.9671C16.5 21.4641 16.0971 21.8671 15.6 21.8671C15.1029 21.8671 14.7 21.4641 14.7 20.9671L14.7 16.1671C14.7 15.67 15.1029 15.2671 15.6 15.2671Z" fill="#4EC3F5"/>
</svg>
