<svg width="24" height="25" viewBox="0 0 24 25" fill="none" xmlns="http://www.w3.org/2000/svg">
<path fill-rule="evenodd" clip-rule="evenodd" d="M2 2.15149C2.41421 2.15149 2.75 2.48728 2.75 2.90149V18.9015C2.75 20.6964 4.20507 22.1515 6 22.1515H22C22.4142 22.1515 22.75 22.4873 22.75 22.9015C22.75 23.3157 22.4142 23.6515 22 23.6515H6C3.37665 23.6515 1.25 21.5248 1.25 18.9015V2.90149C1.25 2.48728 1.58579 2.15149 2 2.15149Z" fill="#1E336B"/>
<path opacity="0.4" fill-rule="evenodd" clip-rule="evenodd" d="M16.75 9.90149C16.75 9.48728 17.0858 9.15149 17.5 9.15149H19C19.9665 9.15149 20.75 9.93499 20.75 10.9015V12.4015C20.75 12.8157 20.4142 13.1515 20 13.1515C19.5858 13.1515 19.25 12.8157 19.25 12.4015V11.7121L16.9445 14.0176C15.8706 15.0915 14.1294 15.0915 13.0555 14.0176L11.8839 12.846C11.3957 12.3579 10.6043 12.3579 10.1161 12.846L7.53033 15.4318C7.23744 15.7247 6.76256 15.7247 6.46967 15.4318C6.17678 15.1389 6.17678 14.6641 6.46967 14.3712L9.05546 11.7854C10.1294 10.7114 11.8706 10.7114 12.9445 11.7854L14.1161 12.9569C14.6043 13.4451 15.3957 13.4451 15.8839 12.9569L18.1893 10.6515H17.5C17.0858 10.6515 16.75 10.3157 16.75 9.90149Z" fill="#1E336B"/>
</svg>
