<svg width="20" height="21" viewBox="0 0 20 21" fill="none" xmlns="http://www.w3.org/2000/svg">
<path opacity="0.8" d="M4 2.09656V8.09656C4 9.20113 4.89543 10.0966 6 10.0966H18C19.1046 10.0966 20 9.20113 20 8.09656V2.09656C20 0.991988 19.1046 0.0965576 18 0.0965576H6C4.89543 0.0965576 4 0.991988 4 2.09656Z" fill="#1E336B"/>
<circle cx="3" cy="7.09656" r="2" fill="#1E336B"/>
<path d="M6 13.0966V13.5966L9.24281 11.8966C9.93172 11.4582 10.8466 11.6742 11.2667 12.3744C11.6738 13.0529 11.4624 13.9326 10.7913 14.352L6.76426 16.4939C6.52344 16.6444 6.2634 16.7373 6 16.7765V19.0966C6 19.6488 5.55228 20.0966 5 20.0966H1C0.447715 20.0966 0 19.6488 0 19.0966V13.0966C0 11.4397 1.34315 10.0966 3 10.0966C4.65685 10.0966 6 11.4397 6 13.0966Z" fill="#1E336B"/>
<path fill-rule="evenodd" clip-rule="evenodd" d="M7.25 4.09656C7.25 3.68234 7.58579 3.34656 8 3.34656L16 3.34656C16.4142 3.34656 16.75 3.68234 16.75 4.09656C16.75 4.51077 16.4142 4.84656 16 4.84656L8 4.84656C7.58579 4.84656 7.25 4.51077 7.25 4.09656Z" fill="#1E336B"/>
<path fill-rule="evenodd" clip-rule="evenodd" d="M7.25 7.09656C7.25 6.68234 7.58579 6.34656 8 6.34656L12 6.34656C12.4142 6.34656 12.75 6.68234 12.75 7.09656C12.75 7.51077 12.4142 7.84656 12 7.84656L8 7.84656C7.58579 7.84656 7.25 7.51077 7.25 7.09656Z" fill="#1E336B"/>
</svg>
