<svg width="17" height="17" viewBox="0 0 17 17" fill="none" xmlns="http://www.w3.org/2000/svg">
<path fill-rule="evenodd" clip-rule="evenodd" d="M4.29428 9.16769H12.2179L9.79171 12.0794C9.5553 12.3625 9.59403 12.7839 9.87719 13.0196C10.161 13.256 10.5817 13.2173 10.8181 12.9342L14.1572 8.92728C14.1832 8.89589 14.1959 8.85916 14.2153 8.82444C14.2313 8.79639 14.2507 8.77235 14.2627 8.74163C14.2928 8.66483 14.3108 8.58402 14.3108 8.50255C14.3108 8.50188 14.3115 8.50055 14.3115 8.49988C14.3115 8.49921 14.3108 8.49788 14.3108 8.49721C14.3108 8.41574 14.2928 8.33493 14.2627 8.25813C14.2507 8.22741 14.2313 8.20337 14.2153 8.17532C14.1959 8.1406 14.1832 8.10387 14.1572 8.07248L10.8181 4.06561C10.6852 3.90734 10.4956 3.8252 10.3046 3.8252C10.1537 3.8252 10.0021 3.87595 9.87719 3.98013C9.59403 4.21587 9.5553 4.63725 9.79171 4.92041L12.2179 7.83207H4.29428C3.92564 7.83207 3.62646 8.13125 3.62646 8.49988C3.62646 8.86851 3.92564 9.16769 4.29428 9.16769Z" fill="white"/>
<mask id="mask0_106_7918" style="mask-type:luminance" maskUnits="userSpaceOnUse" x="3" y="3" width="12" height="11">
<path fill-rule="evenodd" clip-rule="evenodd" d="M4.29428 9.16769H12.2179L9.79171 12.0794C9.5553 12.3625 9.59403 12.7839 9.87719 13.0196C10.161 13.256 10.5817 13.2173 10.8181 12.9342L14.1572 8.92728C14.1832 8.89589 14.1959 8.85916 14.2153 8.82444C14.2313 8.79639 14.2507 8.77235 14.2627 8.74163C14.2928 8.66483 14.3108 8.58402 14.3108 8.50255C14.3108 8.50188 14.3115 8.50055 14.3115 8.49988C14.3115 8.49921 14.3108 8.49788 14.3108 8.49721C14.3108 8.41574 14.2928 8.33493 14.2627 8.25813C14.2507 8.22741 14.2313 8.20337 14.2153 8.17532C14.1959 8.1406 14.1832 8.10387 14.1572 8.07248L10.8181 4.06561C10.6852 3.90734 10.4956 3.8252 10.3046 3.8252C10.1537 3.8252 10.0021 3.87595 9.87719 3.98013C9.59403 4.21587 9.5553 4.63725 9.79171 4.92041L12.2179 7.83207H4.29428C3.92564 7.83207 3.62646 8.13125 3.62646 8.49988C3.62646 8.86851 3.92564 9.16769 4.29428 9.16769Z" fill="white"/>
</mask>
<g mask="url(#mask0_106_7918)">
<rect x="0.955078" y="0.486328" width="16.0275" height="16.0275" fill="white"/>
</g>
</svg>
