<svg width="30" height="25" viewBox="0 0 30 25" fill="none" xmlns="http://www.w3.org/2000/svg">
<path opacity="0.4" d="M3 3.46729C3 1.81043 4.34315 0.467285 6 0.467285H24C25.6569 0.467285 27 1.81043 27 3.46729V18.4673H3V3.46729Z" fill="#4EC3F5"/>
<path d="M9.448 10.616L14.632 7.69338L14.3973 9.22938L11.5387 10.9574L13.9067 12.6854L13.7147 14.2L9.36267 11.2774L9.448 10.616ZM19.8635 11.2774L14.6795 14.2L14.8715 12.6854L17.7729 10.9574L15.3622 9.22938L15.5755 7.69338L19.9275 10.616L19.8635 11.2774Z" fill="#4EC3F5"/>
<path d="M0 19.9673C0 19.1389 0.671573 18.4673 1.5 18.4673H28.5C29.3284 18.4673 30 19.1389 30 19.9673C30 22.4526 27.9853 24.4673 25.5 24.4673H4.5C2.01472 24.4673 0 22.4526 0 19.9673Z" fill="#4EC3F5"/>
</svg>
