<svg width="24" height="21" viewBox="0 0 24 21" fill="none" xmlns="http://www.w3.org/2000/svg">
<path opacity="0.8" fill-rule="evenodd" clip-rule="evenodd" d="M12.0002 3.69214C12.4625 3.69214 12.8374 4.06697 12.8374 4.52934V5.48209C14.1258 5.84651 15.0699 7.03115 15.0699 8.43628C15.0699 8.89865 14.6951 9.27348 14.2327 9.27348C13.7703 9.27348 13.3955 8.89865 13.3955 8.43628C13.3955 7.66566 12.7708 7.04094 12.0002 7.04094C11.2295 7.04094 10.6048 7.66566 10.6048 8.43628C10.6048 9.2069 11.2295 9.83161 12.0002 9.83161C13.6955 9.83161 15.0699 11.206 15.0699 12.9014C15.0699 14.3065 14.1258 15.4911 12.8374 15.8555V16.8083C12.8374 17.2707 12.4625 17.6455 12.0002 17.6455C11.5378 17.6455 11.163 17.2707 11.163 16.8083V15.8555C9.8745 15.4911 8.93042 14.3065 8.93042 12.9014C8.93042 12.439 9.30525 12.0642 9.76762 12.0642C10.23 12.0642 10.6048 12.439 10.6048 12.9014C10.6048 13.672 11.2295 14.2967 12.0002 14.2967C12.7708 14.2967 13.3955 13.672 13.3955 12.9014C13.3955 12.1307 12.7708 11.506 12.0002 11.506C10.3048 11.506 8.93042 10.1316 8.93042 8.43628C8.93042 7.03115 9.8745 5.84651 11.163 5.48209V4.52934C11.163 4.06697 11.5378 3.69214 12.0002 3.69214Z" fill="#1E336B"/>
<path fill-rule="evenodd" clip-rule="evenodd" d="M2.94302 7.0059C4.39135 3.42792 7.89966 0.901489 12.0001 0.901489C16.8568 0.901489 20.8856 4.44624 21.6404 9.08968L22.6604 8.32467C23.0303 8.04725 23.5551 8.12222 23.8325 8.49211C24.1099 8.86201 24.035 9.38677 23.6651 9.6642L22.5364 10.5107C21.6062 11.2084 20.3617 11.3206 19.3217 10.8006L18.3233 10.3014C17.9097 10.0946 17.7421 9.59172 17.9489 9.17816C18.1556 8.7646 18.6585 8.59697 19.0721 8.80375L19.9695 9.25245C19.2997 5.45817 15.9865 2.57589 12.0001 2.57589C8.605 2.57589 5.69627 4.66673 4.49508 7.63416C4.32159 8.06275 3.83351 8.26955 3.40492 8.09607C2.97633 7.92258 2.76953 7.43449 2.94302 7.0059ZM2.32068 11.9853C2.28338 12.0001 2.24652 12.0166 2.21021 12.0347L1.21179 12.5339C0.798233 12.7407 0.295349 12.5731 0.0885692 12.1595C-0.118211 11.746 0.0494173 11.2431 0.462977 11.0363L1.4614 10.5371C2.50138 10.0171 3.74588 10.1293 4.67607 10.8269L5.80478 11.6735C6.17468 11.9509 6.24964 12.4757 5.97222 12.8456C5.69479 13.2155 5.17004 13.2904 4.80014 13.013L4.11496 12.4991C4.94447 16.0871 8.15992 18.7618 12.0001 18.7618C15.3951 18.7618 18.3039 16.6709 19.5051 13.7035C19.6785 13.2749 20.1666 13.0681 20.5952 13.2416C21.0238 13.4151 21.2306 13.9032 21.0571 14.3318C19.6088 17.9098 16.1005 20.4362 12.0001 20.4362C7.05217 20.4362 2.96357 16.7571 2.32068 11.9853Z" fill="#1E336B"/>
</svg>
