<svg width="22" height="21" viewBox="0 0 22 21" fill="none" xmlns="http://www.w3.org/2000/svg">
<path opacity="0.8" d="M0.75 2.09082C0.75 0.986251 1.64543 0.0908203 2.75 0.0908203H10.75C11.8546 0.0908203 12.75 0.986251 12.75 2.09082V6.09082C12.75 7.19539 11.8546 8.09082 10.75 8.09082H2.75C1.64543 8.09082 0.75 7.19539 0.75 6.09082V2.09082Z" fill="#1E336B"/>
<path opacity="0.8" d="M8.75 14.0908C8.75 12.9863 9.64543 12.0908 10.75 12.0908H18.75C19.8546 12.0908 20.75 12.9863 20.75 14.0908V18.0908C20.75 19.1954 19.8546 20.0908 18.75 20.0908H10.75C9.64543 20.0908 8.75 19.1954 8.75 18.0908V14.0908Z" fill="#1E336B"/>
<path fill-rule="evenodd" clip-rule="evenodd" d="M19.3536 4.84082L18.6339 5.56049C18.341 5.85338 18.341 6.32826 18.6339 6.62115C18.9268 6.91404 19.4017 6.91404 19.6945 6.62115L20.9874 5.32826C21.6709 4.64484 21.6709 3.5368 20.9874 2.85338L19.6945 1.56049C19.4017 1.2676 18.9268 1.2676 18.6339 1.56049C18.341 1.85338 18.341 2.32826 18.6339 2.62115L19.3536 3.34082L14.75 3.34082C14.3358 3.34082 14 3.67661 14 4.09082C14 4.50503 14.3358 4.84082 14.75 4.84082L19.3536 4.84082Z" fill="#1E336B"/>
<path fill-rule="evenodd" clip-rule="evenodd" d="M2.14645 16.8408L2.86612 17.5605C3.15901 17.8534 3.15901 18.3283 2.86612 18.6212C2.57322 18.914 2.09835 18.914 1.80546 18.6212L0.512564 17.3283C-0.170853 16.6448 -0.170855 15.5368 0.512563 14.8534L1.80546 13.5605C2.09835 13.2676 2.57322 13.2676 2.86612 13.5605C3.15901 13.8534 3.15901 14.3283 2.86612 14.6212L2.14645 15.3408L6.75 15.3408C7.16421 15.3408 7.5 15.6766 7.5 16.0908C7.5 16.505 7.16421 16.8408 6.75 16.8408L2.14645 16.8408Z" fill="#1E336B"/>
</svg>
