<svg width="22" height="18" viewBox="0 0 22 18" fill="none" xmlns="http://www.w3.org/2000/svg">
<path opacity="0.8" fill-rule="evenodd" clip-rule="evenodd" d="M10.75 2.68201C11.1642 2.68201 11.5 3.01779 11.5 3.43201V4.28552C12.6543 4.61199 13.5 5.67323 13.5 6.93201C13.5 7.34622 13.1642 7.68201 12.75 7.68201C12.3358 7.68201 12 7.34622 12 6.93201C12 6.24165 11.4404 5.68201 10.75 5.68201C10.0596 5.68201 9.5 6.24165 9.5 6.93201C9.5 7.62236 10.0596 8.18201 10.75 8.18201C12.2688 8.18201 13.5 9.41322 13.5 10.932C13.5 12.1908 12.6543 13.252 11.5 13.5785V14.432C11.5 14.8462 11.1642 15.182 10.75 15.182C10.3358 15.182 10 14.8462 10 14.432V13.5785C8.84575 13.252 8 12.1908 8 10.932C8 10.5178 8.33579 10.182 8.75 10.182C9.16421 10.182 9.5 10.5178 9.5 10.932C9.5 11.6224 10.0596 12.182 10.75 12.182C11.4404 12.182 12 11.6224 12 10.932C12 10.2417 11.4404 9.68201 10.75 9.68201C9.23122 9.68201 8 8.45079 8 6.93201C8 5.67323 8.84575 4.61199 10 4.28552V3.43201C10 3.01779 10.3358 2.68201 10.75 2.68201Z" fill="#1E336B"/>
<path fill-rule="evenodd" clip-rule="evenodd" d="M2.63648 5.6506C3.93395 2.44529 7.07685 0.182007 10.7502 0.182007C15.101 0.182007 18.7102 3.35754 19.3864 7.51733L20.3002 6.83201C20.6315 6.58348 21.1016 6.65064 21.3502 6.98201C21.5987 7.31338 21.5315 7.78348 21.2002 8.03201L20.189 8.79037C19.3557 9.41534 18.2408 9.51587 17.3092 9.05004L16.4148 8.60283C16.0443 8.41759 15.8941 7.96708 16.0793 7.5966C16.2646 7.22611 16.7151 7.07594 17.0856 7.26119L17.8895 7.66315C17.2895 4.26407 14.3214 1.68201 10.7502 1.68201C7.70872 1.68201 5.10296 3.55506 4.02689 6.21342C3.87147 6.59737 3.43422 6.78263 3.05027 6.62721C2.66632 6.47179 2.48106 6.03455 2.63648 5.6506ZM2.07897 10.1114C2.04555 10.1246 2.01253 10.1393 1.98 10.1556L1.08557 10.6028C0.715091 10.7881 0.264586 10.6379 0.079344 10.2674C-0.105898 9.89693 0.0442701 9.44643 0.414754 9.26119L1.30918 8.81397C2.24084 8.34814 3.35572 8.44867 4.18902 9.07365L5.20016 9.83201C5.53154 10.0805 5.59869 10.5506 5.35016 10.882C5.10164 11.2134 4.63154 11.2805 4.30016 11.032L3.68635 10.5716C4.42946 13.786 7.31 16.182 10.7502 16.182C13.7916 16.182 16.3974 14.3089 17.4734 11.6506C17.6289 11.2666 18.0661 11.0814 18.4501 11.2368C18.834 11.3922 19.0193 11.8295 18.8639 12.2134C17.5664 15.4187 14.4235 17.682 10.7502 17.682C6.31763 17.682 2.65489 14.3861 2.07897 10.1114Z" fill="#1E336B"/>
</svg>
