<svg width="16" height="17" viewBox="0 0 16 17" fill="none" xmlns="http://www.w3.org/2000/svg">
<path opacity="0.8" d="M14 0.0908202C15.1046 0.0908203 16 0.986251 16 2.09082C16 3.19539 15.1046 4.09082 14 4.09082L6 4.09082C4.89543 4.09082 4 3.19539 4 2.09082C4 0.98625 4.89543 0.0908198 6 0.0908199L14 0.0908202Z" fill="#1E336B"/>
<path opacity="0.8" d="M14 8.09082C15.1046 8.09082 16 8.98625 16 10.0908C16 11.1954 15.1046 12.0908 14 12.0908L6 12.0908C4.89543 12.0908 4 11.1954 4 10.0908C4 8.98625 4.89543 8.09082 6 8.09082L14 8.09082Z" fill="#1E336B"/>
<rect x="12" y="4.09082" width="4" height="12" rx="2" transform="rotate(90 12 4.09082)" fill="#1E336B"/>
<rect x="13" y="12.0908" width="4" height="12" rx="2" transform="rotate(90 13 12.0908)" fill="#1E336B"/>
</svg>
