<svg width="20" height="21" viewBox="0 0 20 21" fill="none" xmlns="http://www.w3.org/2000/svg">
<path d="M11 2.18201H9C4.02944 2.18201 0 6.21144 0 11.182V16.182C0 18.3911 1.79086 20.182 4 20.182H11C15.9706 20.182 20 16.1526 20 11.182C20 6.21144 15.9706 2.18201 11 2.18201Z" fill="#4EC3F5"/>
<path d="M20 4.18201C20 6.39115 18.2091 8.18201 16 8.18201C13.7909 8.18201 12 6.39115 12 4.18201C12 1.97287 13.7909 0.182007 16 0.182007C18.2091 0.182007 20 1.97287 20 4.18201Z" fill="#419ED2"/>
<path fill-rule="evenodd" clip-rule="evenodd" d="M5.25 9.18201C5.25 8.76779 5.58579 8.43201 6 8.43201H10C10.4142 8.43201 10.75 8.76779 10.75 9.18201C10.75 9.59622 10.4142 9.93201 10 9.93201H6C5.58579 9.93201 5.25 9.59622 5.25 9.18201ZM5.25 13.182C5.25 12.7678 5.58579 12.432 6 12.432H14C14.4142 12.432 14.75 12.7678 14.75 13.182C14.75 13.5962 14.4142 13.932 14 13.932H6C5.58579 13.932 5.25 13.5962 5.25 13.182Z" fill="#419ED2"/>
</svg>
