<svg width="22" height="21" viewBox="0 0 22 21" fill="none" xmlns="http://www.w3.org/2000/svg">
<path d="M0.75 2.18201C0.75 1.07744 1.64543 0.182007 2.75 0.182007H10.75C11.8546 0.182007 12.75 1.07744 12.75 2.18201V6.18201C12.75 7.28658 11.8546 8.18201 10.75 8.18201H2.75C1.64543 8.18201 0.75 7.28658 0.75 6.18201V2.18201Z" fill="#50CCFE"/>
<path d="M8.75 14.182C8.75 13.0774 9.64543 12.182 10.75 12.182H18.75C19.8546 12.182 20.75 13.0774 20.75 14.182V18.182C20.75 19.2866 19.8546 20.182 18.75 20.182H10.75C9.64543 20.182 8.75 19.2866 8.75 18.182V14.182Z" fill="#50CCFE"/>
<path opacity="0.7" fill-rule="evenodd" clip-rule="evenodd" d="M19.3536 4.93201L18.6339 5.65168C18.341 5.94457 18.341 6.41944 18.6339 6.71234C18.9268 7.00523 19.4017 7.00523 19.6945 6.71234L20.9874 5.41944C21.6709 4.73603 21.6709 3.62799 20.9874 2.94457L19.6945 1.65168C19.4017 1.35878 18.9268 1.35878 18.6339 1.65168C18.341 1.94457 18.341 2.41944 18.6339 2.71234L19.3536 3.43201L14.75 3.43201C14.3358 3.43201 14 3.76779 14 4.18201C14 4.59622 14.3358 4.93201 14.75 4.93201L19.3536 4.93201Z" fill="#50CCFE"/>
<path opacity="0.7" fill-rule="evenodd" clip-rule="evenodd" d="M2.14645 16.932L2.86612 17.6517C3.15901 17.9446 3.15901 18.4194 2.86612 18.7123C2.57322 19.0052 2.09835 19.0052 1.80546 18.7123L0.512564 17.4194C-0.170853 16.736 -0.170855 15.628 0.512563 14.9446L1.80546 13.6517C2.09835 13.3588 2.57322 13.3588 2.86612 13.6517C3.15901 13.9446 3.15901 14.4194 2.86612 14.7123L2.14645 15.432L6.75 15.432C7.16421 15.432 7.5 15.7678 7.5 16.182C7.5 16.5962 7.16421 16.932 6.75 16.932L2.14645 16.932Z" fill="#50CCFE"/>
</svg>
