<svg width="24" height="25" viewBox="0 0 24 25" fill="none" xmlns="http://www.w3.org/2000/svg">
<path opacity="0.7" d="M19 2.66885H5C3.89543 2.66885 3 3.56428 3 4.66885V19.8232C3 21.2084 4.37412 22.1742 5.67744 21.705L7.2392 21.1427C7.72721 20.9671 8.26439 20.9878 8.73737 21.2007L11.1793 22.2995C11.7012 22.5344 12.2988 22.5344 12.8207 22.2995L15.2626 21.2007C15.7356 20.9878 16.2728 20.9671 16.7608 21.1427L18.3226 21.705C19.6259 22.1742 21 21.2084 21 19.8232V4.66885C21 3.56428 20.1046 2.66885 19 2.66885Z" fill="#1E336B"/>
<path fill-rule="evenodd" clip-rule="evenodd" d="M17.75 7.66885C17.75 8.08307 17.4142 8.41885 17 8.41885L7 8.41885C6.58579 8.41885 6.25 8.08307 6.25 7.66885C6.25 7.25464 6.58579 6.91885 7 6.91885L17 6.91885C17.4142 6.91885 17.75 7.25464 17.75 7.66885Z" fill="#1E336B"/>
<path fill-rule="evenodd" clip-rule="evenodd" d="M17.75 11.6689C17.75 12.0831 17.4142 12.4189 17 12.4189L7 12.4189C6.58579 12.4189 6.25 12.0831 6.25 11.6689C6.25 11.2546 6.58579 10.9189 7 10.9189L17 10.9189C17.4142 10.9189 17.75 11.2546 17.75 11.6689Z" fill="#1E336B"/>
<path fill-rule="evenodd" clip-rule="evenodd" d="M12.75 15.6689C12.75 16.0831 12.4142 16.4189 12 16.4189L7 16.4189C6.58579 16.4189 6.25 16.0831 6.25 15.6689C6.25 15.2546 6.58579 14.9189 7 14.9189L12 14.9189C12.4142 14.9189 12.75 15.2546 12.75 15.6689Z" fill="#1E336B"/>
</svg>
