<svg width="24" height="25" viewBox="0 0 24 25" fill="none" xmlns="http://www.w3.org/2000/svg">
<path opacity="0.4" fill-rule="evenodd" clip-rule="evenodd" d="M7 14.1515C7.41421 14.1515 7.75 14.4873 7.75 14.9015V17.9015C7.75 18.3157 7.41421 18.6515 7 18.6515C6.58579 18.6515 6.25 18.3157 6.25 17.9015V14.9015C6.25 14.4873 6.58579 14.1515 7 14.1515Z" fill="#1E336B"/>
<path opacity="0.4" fill-rule="evenodd" clip-rule="evenodd" d="M11 12.1515C11.4142 12.1515 11.75 12.4873 11.75 12.9015V17.9015C11.75 18.3157 11.4142 18.6515 11 18.6515C10.5858 18.6515 10.25 18.3157 10.25 17.9015V12.9015C10.25 12.4873 10.5858 12.1515 11 12.1515Z" fill="#1E336B"/>
<path opacity="0.4" fill-rule="evenodd" clip-rule="evenodd" d="M15 14.1515C15.4142 14.1515 15.75 14.4873 15.75 14.9015V17.9015C15.75 18.3157 15.4142 18.6515 15 18.6515C14.5858 18.6515 14.25 18.3157 14.25 17.9015V14.9015C14.25 14.4873 14.5858 14.1515 15 14.1515Z" fill="#1E336B"/>
<path opacity="0.4" fill-rule="evenodd" clip-rule="evenodd" d="M19 12.1515C19.4142 12.1515 19.75 12.4873 19.75 12.9015V17.9015C19.75 18.3157 19.4142 18.6515 19 18.6515C18.5858 18.6515 18.25 18.3157 18.25 17.9015V12.9015C18.25 12.4873 18.5858 12.1515 19 12.1515Z" fill="#1E336B"/>
<path fill-rule="evenodd" clip-rule="evenodd" d="M2 2.15149C2.41421 2.15149 2.75 2.48728 2.75 2.90149V18.9015C2.75 20.6964 4.20507 22.1515 6 22.1515H22C22.4142 22.1515 22.75 22.4873 22.75 22.9015C22.75 23.3157 22.4142 23.6515 22 23.6515H6C3.37665 23.6515 1.25 21.5248 1.25 18.9015V2.90149C1.25 2.48728 1.58579 2.15149 2 2.15149Z" fill="#1E336B"/>
<path fill-rule="evenodd" clip-rule="evenodd" d="M19.5303 6.37116C19.8232 6.66405 19.8232 7.13893 19.5303 7.43182L16.9445 10.0176C15.8706 11.0915 14.1294 11.0915 13.0555 10.0176L11.8839 8.84603C11.3957 8.35788 10.6043 8.35788 10.1161 8.84603L7.53033 11.4318C7.23744 11.7247 6.76256 11.7247 6.46967 11.4318C6.17678 11.1389 6.17678 10.6641 6.46967 10.3712L9.05546 7.78537C10.1294 6.71143 11.8706 6.71143 12.9445 7.78537L14.1161 8.95695C14.6043 9.4451 15.3957 9.4451 15.8839 8.95695L18.4697 6.37116C18.7626 6.07827 19.2374 6.07827 19.5303 6.37116Z" fill="#1E336B"/>
</svg>
