<svg width="24" height="25" viewBox="0 0 24 25" fill="none" xmlns="http://www.w3.org/2000/svg">
<path opacity="0.7" d="M0 19.6672V7.66724H24V19.6672C24 22.3182 21.851 24.4672 19.2 24.4672H4.8C2.14903 24.4672 0 22.3182 0 19.6672Z" fill="#4EC3F5"/>
<path fill-rule="evenodd" clip-rule="evenodd" d="M4.8 0.467285H19.2C21.851 0.467285 24 2.61632 24 5.26728V7.66728H0V5.26728C0 2.61632 2.14903 0.467285 4.8 0.467285ZM20.4 4.06729C20.4 4.73003 19.8627 5.26729 19.2 5.26729C18.5373 5.26729 18 4.73003 18 4.06729C18 3.40454 18.5373 2.86729 19.2 2.86729C19.8627 2.86729 20.4 3.40454 20.4 4.06729ZM14.4 5.26729C15.0627 5.26729 15.6 4.73003 15.6 4.06729C15.6 3.40454 15.0627 2.86729 14.4 2.86729C13.7373 2.86729 13.2 3.40454 13.2 4.06729C13.2 4.73003 13.7373 5.26729 14.4 5.26729Z" fill="#4EC3F5"/>
</svg>
