<svg width="18" height="21" viewBox="0 0 18 21" fill="none" xmlns="http://www.w3.org/2000/svg">
<path opacity="0.8" d="M-5.24537e-07 16.182L-2.09815e-06 4.18201C-2.38784e-06 1.97287 1.79086 0.182009 4 0.182009L11 0.182008L18 7.18201L18 16.182C18 18.3911 16.2091 20.182 14 20.182L4 20.182C1.79086 20.182 -2.34843e-07 18.3911 -5.24537e-07 16.182Z" fill="#1E336B"/>
<path d="M11 3.18201L11 0.182007L18 7.18201L15 7.18201C12.7909 7.18201 11 5.39115 11 3.18201Z" fill="#1E336B"/>
<path fill-rule="evenodd" clip-rule="evenodd" d="M12.4939 9.61758C12.8056 9.89035 12.8372 10.3642 12.5645 10.6759L9.69455 13.9558C9.07786 14.6606 8.01561 14.755 7.28433 14.1699L5.53151 12.7677C5.20806 12.5089 5.15562 12.0369 5.41438 11.7135C5.67313 11.39 6.1451 11.3376 6.46855 11.5964L8.22137 12.9986C8.32584 13.0822 8.47759 13.0687 8.56569 12.968L11.4356 9.68814C11.7084 9.37641 12.1822 9.34482 12.4939 9.61758Z" fill="#1E336B"/>
</svg>
