<svg width="19" height="25" viewBox="0 0 19 25" fill="none" xmlns="http://www.w3.org/2000/svg">
<path fill-rule="evenodd" clip-rule="evenodd" d="M5.49397 5.96126C5.49397 3.8852 7.17695 2.20222 9.25301 2.20222C11.3291 2.20222 13.012 3.8852 13.012 5.96126V8.27451H13.8795C14.176 8.27451 14.466 8.3024 14.747 8.35571V5.96126C14.747 2.92702 12.2872 0.467285 9.25301 0.467285C6.21877 0.467285 3.75903 2.92702 3.75903 5.96126V8.35571C4.04002 8.30241 4.33001 8.27451 4.62651 8.27451H5.49397V5.96126Z" fill="#4EC3F5"/>
<path opacity="0.7" d="M0 12.9009C0 10.3458 2.07136 8.27441 4.62651 8.27441H13.8795C16.4347 8.27441 18.506 10.3458 18.506 12.9009V19.8407C18.506 22.3958 16.4347 24.4672 13.8795 24.4672H4.62651C2.07136 24.4672 0 22.3958 0 19.8407V12.9009Z" fill="#4EC3F5"/>
<circle cx="9.25301" cy="16.3709" r="2.31325" fill="#4EC3F5"/>
</svg>
