<svg width="18" height="20" viewBox="0 0 18 20" fill="none" xmlns="http://www.w3.org/2000/svg">
<path d="M16 0.182007H2C0.895431 0.182007 0 1.07744 0 2.18201V17.3364C0 18.7216 1.37412 19.6873 2.67744 19.2181L4.2392 18.6559C4.72721 18.4802 5.26439 18.501 5.73737 18.7138L8.17927 19.8127C8.70122 20.0476 9.29878 20.0476 9.82073 19.8127L12.2626 18.7138C12.7356 18.501 13.2728 18.4802 13.7608 18.6559L15.3226 19.2181C16.6259 19.6873 18 18.7216 18 17.3364V2.18201C18 1.07744 17.1046 0.182007 16 0.182007Z" fill="#4EC3F5"/>
<path opacity="0.7" fill-rule="evenodd" clip-rule="evenodd" d="M14.75 5.18201C14.75 5.59622 14.4142 5.93201 14 5.93201L4 5.93201C3.58579 5.93201 3.25 5.59622 3.25 5.18201C3.25 4.76779 3.58579 4.43201 4 4.43201L14 4.43201C14.4142 4.43201 14.75 4.76779 14.75 5.18201Z" fill="#419ED2"/>
<path opacity="0.7" fill-rule="evenodd" clip-rule="evenodd" d="M14.75 9.18201C14.75 9.59622 14.4142 9.93201 14 9.93201L4 9.93201C3.58579 9.93201 3.25 9.59622 3.25 9.18201C3.25 8.76779 3.58579 8.43201 4 8.43201L14 8.43201C14.4142 8.43201 14.75 8.76779 14.75 9.18201Z" fill="#419ED2"/>
<path opacity="0.7" fill-rule="evenodd" clip-rule="evenodd" d="M9.75 13.182C9.75 13.5962 9.41421 13.932 9 13.932L4 13.932C3.58579 13.932 3.25 13.5962 3.25 13.182C3.25 12.7678 3.58579 12.432 4 12.432L9 12.432C9.41421 12.432 9.75 12.7678 9.75 13.182Z" fill="#419ED2"/>
</svg>
