<svg width="20" height="19" viewBox="0 0 20 19" fill="none" xmlns="http://www.w3.org/2000/svg">
<path opacity="0.8" d="M16 0.90332C18.2091 0.90332 20 2.69418 20 4.90332L20 14.9033C20 17.1125 18.2091 18.9033 16 18.9033L4 18.9033C1.79086 18.9033 -7.08524e-07 17.1125 -6.11959e-07 14.9033L-1.74846e-07 4.90332C-7.8281e-08 2.69418 1.79086 0.90332 4 0.90332L16 0.90332Z" fill="#1E336B"/>
<circle cx="4" cy="14.9033" r="1" fill="#1E336B"/>
<path d="M0 4.90332L20 4.90332L20 8.90332L-5.24537e-08 8.90332L0 4.90332Z" fill="#1E336B"/>
<circle cx="2" cy="2" r="2" transform="matrix(1 0 0 -1 15 15.9033)" fill="#1E336B"/>
<path d="M17 15.9033C18.2819 15.9033 19.4012 16.7077 20 17.9033C20 18.4556 19.5523 18.9033 19 18.9033H15C14.4477 18.9033 14 18.4556 14 17.9033C14.5988 16.7077 15.7181 15.9033 17 15.9033Z" fill="#1E336B"/>
</svg>
