<svg width="18" height="21" viewBox="0 0 18 21" fill="none" xmlns="http://www.w3.org/2000/svg">
<path opacity="0.8" d="M18 16.9033V6.90332C18 4.69418 16.2091 2.90332 14 2.90332H4C1.79086 2.90332 0 4.69418 0 6.90332V16.9033C0 19.1125 1.79086 20.9033 4 20.9033H14C16.2091 20.9033 18 19.1125 18 16.9033Z" fill="#1E336B"/>
<path fill-rule="evenodd" clip-rule="evenodd" d="M4.25 8.90332C4.25 8.48911 4.58579 8.15332 5 8.15332H13C13.4142 8.15332 13.75 8.48911 13.75 8.90332C13.75 9.31753 13.4142 9.65332 13 9.65332H5C4.58579 9.65332 4.25 9.31753 4.25 8.90332Z" fill="#1E336B"/>
<path fill-rule="evenodd" clip-rule="evenodd" d="M4.25 12.9033C4.25 12.4891 4.58579 12.1533 5 12.1533H13C13.4142 12.1533 13.75 12.4891 13.75 12.9033C13.75 13.3175 13.4142 13.6533 13 13.6533H5C4.58579 13.6533 4.25 13.3175 4.25 12.9033Z" fill="#1E336B"/>
<path fill-rule="evenodd" clip-rule="evenodd" d="M4.25 16.9033C4.25 16.4891 4.58579 16.1533 5 16.1533H9C9.41421 16.1533 9.75 16.4891 9.75 16.9033C9.75 17.3175 9.41421 17.6533 9 17.6533H5C4.58579 17.6533 4.25 17.3175 4.25 16.9033Z" fill="#1E336B"/>
<rect x="5" y="0.90332" width="8" height="4" rx="2" fill="#1E336B"/>
</svg>
