<svg width="16" height="15" viewBox="0 0 16 15" fill="none" xmlns="http://www.w3.org/2000/svg">
<path opacity="0.8" d="M1.69413 6L15.1447 6C15.9098 6 16.2103 4.98643 15.5737 4.55294L9.2773 0.265313C8.75782 -0.0884376 8.08105 -0.0884376 7.56157 0.265313L1.26519 4.55294C0.628611 4.98643 0.92905 6 1.69413 6Z" fill="#4EC3F5"/>
<rect x="3.91943" y="6" width="3" height="6" fill="#4EC3F5"/>
<rect x="9.91943" y="6" width="3" height="6" fill="#4EC3F5"/>
<path opacity="0.8" d="M13.9561 12C14.2401 12 14.4998 12.1605 14.6269 12.4146L15.3769 13.9146C15.6262 14.4133 15.2636 15 14.7061 15L2.13311 15C1.57558 15 1.21296 14.4133 1.46229 13.9146L2.21229 12.4146C2.33934 12.1605 2.59904 12 2.88311 12L13.9561 12Z" fill="#4EC3F5"/>
</svg>
