<svg width="24" height="24" viewBox="0 0 24 24" fill="none" xmlns="http://www.w3.org/2000/svg">
<path opacity="0.8" d="M10.8889 2.99951H9.77778C5.48223 2.99951 2 6.52527 2 10.8745V14.2495C2 15.4922 2.99492 16.4995 4.22222 16.4995H10.8889C14.5708 16.4995 17.5556 13.4774 17.5556 9.74951C17.5556 9.2064 17.4922 8.67826 17.3726 8.17227C16.6711 5.20517 14.0344 2.99951 10.8889 2.99951Z" fill="#1E336B"/>
<path d="M10.8888 16.4996C14.5707 16.4996 17.5555 13.4775 17.5555 9.7496C17.5555 9.20649 17.4921 8.67835 17.3725 8.17236C20.0985 9.39655 21.9999 12.1608 21.9999 15.3746V18.7496C21.9999 19.9922 21.005 20.9996 19.7777 20.9996H13.1111C10.2083 20.9996 7.73892 19.1213 6.82373 16.4996H10.8888Z" fill="#1E336B"/>
</svg>
