<svg width="32" height="32" viewBox="0 0 32 32" fill="none" xmlns="http://www.w3.org/2000/svg">
<rect x="0.473633" y="0.0959473" width="31.1053" height="31.1053" rx="6.48026" fill="white" fill-opacity="0.2"/>
<path fill-rule="evenodd" clip-rule="evenodd" d="M20.3462 8.30409C20.3462 8.06561 20.1518 7.87207 19.9142 7.87207H17.7541C15.3676 7.87207 13.4339 9.6131 13.4339 11.7602V14.0931H11.2738C11.0353 14.0931 10.8418 14.2867 10.8418 14.5251V16.7716C10.8418 17.0101 11.0353 17.2036 11.2738 17.2036H13.4339V22.9927C13.4339 23.2312 13.6274 23.4247 13.8659 23.4247H16.458C16.6956 23.4247 16.89 23.2312 16.89 22.9927V17.2036H19.153C19.3474 17.2036 19.5176 17.074 19.5703 16.8874L20.1932 14.6409C20.2701 14.3662 20.0628 14.0931 19.7776 14.0931H16.89V11.7602C16.89 11.3308 17.2763 10.9826 17.7541 10.9826H19.9142C20.1518 10.9826 20.3462 10.7891 20.3462 10.5506V8.30409Z" fill="#1E336B"/>
<mask id="mask0_24_4534" style="mask-type:luminance" maskUnits="userSpaceOnUse" x="10" y="7" width="11" height="17">
<path fill-rule="evenodd" clip-rule="evenodd" d="M20.3462 8.30409C20.3462 8.06561 20.1518 7.87207 19.9142 7.87207H17.7541C15.3676 7.87207 13.4339 9.6131 13.4339 11.7602V14.0931H11.2738C11.0353 14.0931 10.8418 14.2867 10.8418 14.5251V16.7716C10.8418 17.0101 11.0353 17.2036 11.2738 17.2036H13.4339V22.9927C13.4339 23.2312 13.6274 23.4247 13.8659 23.4247H16.458C16.6956 23.4247 16.89 23.2312 16.89 22.9927V17.2036H19.153C19.3474 17.2036 19.5176 17.074 19.5703 16.8874L20.1932 14.6409C20.2701 14.3662 20.0628 14.0931 19.7776 14.0931H16.89V11.7602C16.89 11.3308 17.2763 10.9826 17.7541 10.9826H19.9142C20.1518 10.9826 20.3462 10.7891 20.3462 10.5506V8.30409Z" fill="white"/>
</mask>
<g mask="url(#mask0_24_4534)">
<rect x="5.65771" y="5.28003" width="20.7368" height="20.7368" fill="#1E336B"/>
</g>
</svg>
