<svg width="19" height="24" viewBox="0 0 19 24" fill="none" xmlns="http://www.w3.org/2000/svg">
<path opacity="0.8" d="M0 12.4331C0 11.1556 1.03568 10.1199 2.31325 10.1199H12.7229C14.0005 10.1199 15.0361 11.1556 15.0361 12.4331C15.0361 13.7107 14.0005 14.7464 12.7229 14.7464H2.31325C1.03568 14.7464 0 13.7107 0 12.4331Z" fill="#1E336B"/>
<path d="M12.7229 14.7466H2.50602C1.12199 14.7466 0 15.7823 0 17.0598C0 18.3374 1.12199 19.3731 2.50602 19.3731H12.7229C14.0005 19.3731 15.0361 18.3374 15.0361 17.0598C15.0361 15.7823 14.0005 14.7466 12.7229 14.7466Z" fill="#1E336B"/>
<path opacity="0.8" d="M18.5059 19.3731C18.5059 16.8179 16.4346 14.7466 13.8794 14.7466C13.6489 14.7466 13.4223 14.7634 13.2007 14.796C10.9673 15.1243 9.25293 17.0485 9.25293 19.3731C9.25293 21.9282 11.3243 23.9996 13.8794 23.9996C16.4346 23.9996 18.5059 21.9282 18.5059 19.3731Z" fill="#1E336B"/>
<path fill-rule="evenodd" clip-rule="evenodd" d="M8.3854 2.48215L7.55301 3.31454C7.21424 3.65331 6.66499 3.65331 6.32622 3.31454C5.98746 2.97577 5.98746 2.42652 6.32622 2.08775L7.82162 0.592357C8.61208 -0.198102 9.89366 -0.198104 10.6841 0.592356L12.1795 2.08775C12.5183 2.42652 12.5183 2.97577 12.1795 3.31454C11.8407 3.65331 11.2915 3.65331 10.9527 3.31454L10.1203 2.48215L10.1203 6.65011C10.1203 7.1292 9.73196 7.51758 9.25287 7.51758C8.77378 7.51758 8.3854 7.1292 8.3854 6.65011L8.3854 2.48215Z" fill="#1E336B"/>
</svg>
