<svg width="32" height="32" viewBox="0 0 32 32" fill="none" xmlns="http://www.w3.org/2000/svg">
<rect x="0.420898" y="0.0959473" width="31.1053" height="31.1053" rx="6.48026" fill="white" fill-opacity="0.2"/>
<path fill-rule="evenodd" clip-rule="evenodd" d="M20.7214 17.3597C20.1459 19.2104 18.7116 20.4918 16.803 20.7744C13.8903 21.2055 11.0303 18.997 10.804 16.0593C10.569 13.011 12.9736 10.4647 15.9744 10.4647C16.6682 10.4647 17.33 10.6012 17.9349 10.8483C18.1448 10.9339 18.3824 10.8604 18.4896 10.6617L19.7295 8.37458C19.847 8.15598 19.7623 7.87431 19.5359 7.77235C18.4498 7.28158 17.2454 7.00854 15.9769 7.00854C11.1193 7.00854 7.19749 11.0142 7.3366 15.9021C7.46361 20.3613 11.1444 24.0922 15.6002 24.2815C20.3922 24.4837 24.3667 20.7856 24.6078 16.0999C24.6173 15.9288 24.6138 14.9326 24.6104 14.3485C24.6095 14.11 24.416 13.9208 24.1784 13.9208H16.4029C16.1644 13.9208 15.9709 14.1135 15.9709 14.3528V16.9277C15.9709 17.1653 16.1644 17.3597 16.4029 17.3597H20.7214" fill="#1E336B"/>
<mask id="mask0_24_4538" style="mask-type:luminance" maskUnits="userSpaceOnUse" x="7" y="7" width="18" height="18">
<path fill-rule="evenodd" clip-rule="evenodd" d="M20.7214 17.3597C20.1459 19.2104 18.7116 20.4918 16.803 20.7744C13.8903 21.2055 11.0303 18.997 10.804 16.0593C10.569 13.011 12.9736 10.4647 15.9744 10.4647C16.6682 10.4647 17.33 10.6012 17.9349 10.8483C18.1448 10.9339 18.3824 10.8604 18.4896 10.6617L19.7295 8.37458C19.847 8.15598 19.7623 7.87431 19.5359 7.77235C18.4498 7.28158 17.2454 7.00854 15.9769 7.00854C11.1193 7.00854 7.19749 11.0142 7.3366 15.9021C7.46361 20.3613 11.1444 24.0922 15.6002 24.2815C20.3922 24.4837 24.3667 20.7856 24.6078 16.0999C24.6173 15.9288 24.6138 14.9326 24.6104 14.3485C24.6095 14.11 24.416 13.9208 24.1784 13.9208H16.4029C16.1644 13.9208 15.9709 14.1135 15.9709 14.3528V16.9277C15.9709 17.1653 16.1644 17.3597 16.4029 17.3597H20.7214" fill="white"/>
</mask>
<g mask="url(#mask0_24_4538)">
<rect x="5.60498" y="5.28003" width="20.7368" height="20.7368" fill="#1E336B"/>
</g>
</svg>
