<svg width="18" height="20" viewBox="0 0 18 20" fill="none" xmlns="http://www.w3.org/2000/svg">
<path opacity="0.4" d="M7.31156 0.969693L2.31374 3.19095C0.868116 3.83345 -0.0858743 5.27229 0.00611559 6.85158C0.365748 13.0258 2.17379 15.7439 6.87192 18.9246C8.11651 19.7672 9.75708 19.7693 11.0008 18.9253C15.7133 15.7273 17.4567 12.9708 17.8479 6.87297C17.9499 5.28323 16.9944 3.82912 15.5387 3.18214L10.5607 0.969692C9.52641 0.510021 8.34582 0.510021 7.31156 0.969693Z" fill="#50CCFE"/>
<path fill-rule="evenodd" clip-rule="evenodd" d="M12.4299 7.6832C12.7417 7.95596 12.7733 8.42978 12.5005 8.74151L9.63059 12.0214C9.0139 12.7262 7.95165 12.8206 7.22036 12.2355L5.46754 10.8333C5.1441 10.5745 5.09165 10.1026 5.35041 9.77911C5.60917 9.45566 6.08114 9.40322 6.40458 9.66198L8.15741 11.0642C8.26188 11.1478 8.41363 11.1343 8.50172 11.0336L11.3716 7.75375C11.6444 7.44202 12.1182 7.41044 12.4299 7.6832Z" fill="#50CCFE"/>
</svg>
