<svg width="20" height="15" viewBox="0 0 20 15" fill="none" xmlns="http://www.w3.org/2000/svg">
<path d="M5.99381 1.24376C6.15469 0.568054 6.75843 0.0911865 7.45302 0.0911865H11.7501C12.4447 0.0911865 13.0484 0.568054 13.2093 1.24376L14.1617 5.24376C14.3861 6.18632 13.6714 7.09119 12.7025 7.09119H6.50064C5.53173 7.09119 4.81701 6.18632 5.04143 5.24376L5.99381 1.24376Z" fill="#4EC3F5"/>
<g opacity="0.4">
<path d="M7.92448 5.61133C7.83896 5.61133 7.76495 5.58251 7.70245 5.52487C7.63996 5.46724 7.60871 5.39999 7.60871 5.32315V1.94181C7.60871 1.85856 7.6416 1.78651 7.70739 1.72567C7.77646 1.66163 7.85705 1.62961 7.94914 1.62961C8.05111 1.62961 8.13663 1.67284 8.2057 1.75929L10.4259 4.42018L10.4654 4.49702V1.87937C10.4654 1.80252 10.4966 1.73528 10.5591 1.67764C10.6216 1.62 10.6956 1.59119 10.7812 1.59119C10.8667 1.59119 10.9407 1.62 11.0032 1.67764C11.069 1.73528 11.1018 1.80252 11.1018 1.87937V5.23669C11.1018 5.31994 11.0673 5.39359 10.9982 5.45763C10.9292 5.51847 10.8486 5.54889 10.7565 5.54889C10.7104 5.54889 10.6644 5.53768 10.6183 5.51527C10.5723 5.48965 10.5328 5.45763 10.4999 5.41921L8.28464 2.77273L8.24517 2.69108V5.32315C8.24517 5.39999 8.21228 5.46724 8.1465 5.52487C8.084 5.58251 8.00999 5.61133 7.92448 5.61133Z" fill="#316DA2"/>
<path d="M7.17285 3.45316C7.17285 3.27632 7.32011 3.13296 7.50177 3.13296H11.3666C11.5482 3.13296 11.6955 3.27632 11.6955 3.45316C11.6955 3.63001 11.5482 3.77337 11.3666 3.77337H7.50177C7.32011 3.77337 7.17285 3.63001 7.17285 3.45316Z" fill="#316DA2"/>
<path d="M7.17285 4.25367C7.17285 4.07683 7.32011 3.93347 7.50177 3.93347H11.3666C11.5482 3.93347 11.6955 4.07683 11.6955 4.25367C11.6955 4.43051 11.5482 4.57387 11.3666 4.57387H7.50177C7.32011 4.57387 7.17285 4.43051 7.17285 4.25367Z" fill="#316DA2"/>
</g>
<path opacity="0.4" d="M0.993854 8.24376C1.15474 7.56805 1.75847 7.09119 2.45306 7.09119H6.75015C7.44475 7.09119 8.04848 7.56805 8.20936 8.24376L9.16175 12.2438C9.38616 13.1863 8.67145 14.0912 7.70254 14.0912H1.50068C0.531771 14.0912 -0.182947 13.1863 0.0414732 12.2438L0.993854 8.24376Z" fill="#4EC3F5"/>
<path opacity="0.4" d="M10.9939 8.24376C11.1547 7.56805 11.7585 7.09119 12.4531 7.09119H16.7502C17.4447 7.09119 18.0485 7.56805 18.2094 8.24376L19.1617 12.2438C19.3862 13.1863 18.6714 14.0912 17.7025 14.0912H11.5007C10.5318 14.0912 9.81705 13.1863 10.0415 12.2438L10.9939 8.24376Z" fill="#4EC3F5"/>
</svg>
