<svg width="18" height="20" viewBox="0 0 18 20" fill="none" xmlns="http://www.w3.org/2000/svg">
<path opacity="0.8" d="M16 0.0965576H2C0.895431 0.0965576 0 0.991989 0 2.09656V17.2509C0 18.6361 1.37412 19.6019 2.67744 19.1327L4.2392 18.5704C4.72721 18.3948 5.26439 18.4155 5.73737 18.6284L8.17927 19.7272C8.70122 19.9621 9.29878 19.9621 9.82073 19.7272L12.2626 18.6284C12.7356 18.4155 13.2728 18.3948 13.7608 18.5704L15.3226 19.1327C16.6259 19.6019 18 18.6361 18 17.2509V2.09656C18 0.991988 17.1046 0.0965576 16 0.0965576Z" fill="#1E336B"/>
<path fill-rule="evenodd" clip-rule="evenodd" d="M14.75 5.09656C14.75 5.51077 14.4142 5.84656 14 5.84656L4 5.84656C3.58579 5.84656 3.25 5.51077 3.25 5.09656C3.25 4.68234 3.58579 4.34656 4 4.34656L14 4.34656C14.4142 4.34656 14.75 4.68234 14.75 5.09656Z" fill="#1E336B"/>
<path fill-rule="evenodd" clip-rule="evenodd" d="M14.75 9.09656C14.75 9.51077 14.4142 9.84656 14 9.84656L4 9.84656C3.58579 9.84656 3.25 9.51077 3.25 9.09656C3.25 8.68234 3.58579 8.34656 4 8.34656L14 8.34656C14.4142 8.34656 14.75 8.68234 14.75 9.09656Z" fill="#1E336B"/>
<path fill-rule="evenodd" clip-rule="evenodd" d="M9.75 13.0966C9.75 13.5108 9.41421 13.8466 9 13.8466L4 13.8466C3.58579 13.8466 3.25 13.5108 3.25 13.0966C3.25 12.6823 3.58579 12.3466 4 12.3466L9 12.3466C9.41421 12.3466 9.75 12.6823 9.75 13.0966Z" fill="#1E336B"/>
</svg>
