<svg width="19" height="17" viewBox="0 0 19 17" fill="none" xmlns="http://www.w3.org/2000/svg">
<path opacity="0.8" d="M2.72337 5.20093H0.838379V13.6834L4.90132 15.7149C5.94829 16.2383 7.10276 16.5109 8.2733 16.5109H15.9183C16.9594 16.5109 17.8033 15.6669 17.8033 14.6259C17.8033 13.5848 16.9594 12.7409 15.9183 12.7409H14.4258C13.5479 12.7409 12.682 12.5365 11.8968 12.1439L9.1248 10.7579C9.30604 10.591 9.45578 10.384 9.55912 10.1428C9.9489 9.23334 9.53204 8.17972 8.62551 7.78311L2.72337 5.20093Z" fill="#50CCFE"/>
<path d="M16.1114 2.85712L14.1356 2.85712L13.472 2.09599C12.8215 1.34988 13.5804 0.234668 14.5301 0.54104L14.9695 0.682791C15.0695 0.715065 15.1774 0.715065 15.2775 0.682791L15.7169 0.54104C16.6666 0.234668 17.4255 1.34988 16.775 2.09599L16.1114 2.85712Z" fill="#50CCFE"/>
<path d="M12.1325 4.37594C12.5033 3.1896 13.602 2.38184 14.8449 2.38184H15.4027C16.6456 2.38184 17.7443 3.1896 18.1151 4.37595L18.7071 6.27043C19.2789 8.1003 17.9119 9.95977 15.9947 9.95977H14.2529C12.3357 9.95977 10.9687 8.1003 11.5405 6.27043L12.1325 4.37594Z" fill="#50CCFE"/>
<g opacity="0.4">
<path d="M13.5385 8.06704C13.4579 8.06704 13.3881 8.03988 13.3292 7.98556C13.2703 7.93124 13.2409 7.86786 13.2409 7.79543V4.60854C13.2409 4.53007 13.2719 4.46217 13.3339 4.40483C13.399 4.34447 13.4749 4.31429 13.5617 4.31429C13.6578 4.31429 13.7384 4.35503 13.8035 4.43652L15.8961 6.94439L15.9333 7.01682V4.54969C15.9333 4.47726 15.9627 4.41388 16.0216 4.35956C16.0805 4.30524 16.1503 4.27808 16.2309 4.27808C16.3115 4.27808 16.3812 4.30524 16.4401 4.35956C16.5021 4.41388 16.5331 4.47726 16.5331 4.54969V7.71395C16.5331 7.79241 16.5006 7.86183 16.4355 7.92218C16.3704 7.97952 16.2944 8.00819 16.2076 8.00819C16.1642 8.00819 16.1208 7.99763 16.0774 7.97651C16.034 7.95236 15.9968 7.92218 15.9658 7.88597L13.8779 5.39168L13.8407 5.31472V7.79543C13.8407 7.86786 13.8097 7.93124 13.7477 7.98556C13.6888 8.03988 13.6191 8.06704 13.5385 8.06704Z" fill="#3271A6"/>
<path d="M12.8301 6.03298C12.8301 5.86631 12.9689 5.73119 13.1401 5.73119H16.7827C16.9539 5.73119 17.0927 5.86631 17.0927 6.03298C17.0927 6.19966 16.9539 6.33477 16.7827 6.33477H13.1401C12.9689 6.33477 12.8301 6.19966 12.8301 6.03298Z" fill="#3271A6"/>
<path d="M12.8301 6.78746C12.8301 6.62078 12.9689 6.48567 13.1401 6.48567H16.7827C16.9539 6.48567 17.0927 6.62078 17.0927 6.78746C17.0927 6.95413 16.9539 7.08924 16.7827 7.08924H13.1401C12.9689 7.08924 12.8301 6.95413 12.8301 6.78746Z" fill="#3271A6"/>
</g>
</svg>
