<svg width="20" height="18" viewBox="0 0 20 18" fill="none" xmlns="http://www.w3.org/2000/svg">
<path opacity="0.4" d="M2 5.59119H0V14.5912L4.31083 16.7466C5.42168 17.302 6.64658 17.5912 7.88854 17.5912H16C17.1046 17.5912 18 16.6958 18 15.5912C18 14.4866 17.1046 13.5912 16 13.5912H14.4164C13.4849 13.5912 12.5663 13.3743 11.7331 12.9577L8.792 11.4872C8.9843 11.3101 9.14317 11.0905 9.25282 10.8346C9.66638 9.86963 9.22409 8.75172 8.26225 8.33092L2 5.59119Z" fill="#50CCFE"/>
<path d="M16.2052 3.10378L14.1088 3.10377L13.4048 2.29621C12.7146 1.50458 13.5198 0.321323 14.5274 0.646387L14.9936 0.796787C15.0998 0.83103 15.2143 0.83103 15.3204 0.796787L15.7867 0.646387C16.7943 0.321323 17.5995 1.50458 16.9093 2.29621L16.2052 3.10378Z" fill="#50CCFE"/>
<path d="M11.9833 4.71709C12.3767 3.45836 13.5424 2.60132 14.8612 2.60132H15.453C16.7718 2.60132 17.9375 3.45836 18.3309 4.71709L18.959 6.72717C19.5657 8.66869 18.1153 10.6416 16.0811 10.6416H14.233C12.1989 10.6416 10.7484 8.66869 11.3552 6.72717L11.9833 4.71709Z" fill="#50CCFE"/>
<g opacity="0.4">
<path d="M13.4753 8.63159C13.3897 8.63159 13.3157 8.60277 13.2532 8.54514C13.1907 8.4875 13.1595 8.42026 13.1595 8.34341V4.96207C13.1595 4.87882 13.1924 4.80677 13.2582 4.74594C13.3272 4.68189 13.4078 4.64987 13.4999 4.64987C13.6019 4.64987 13.6874 4.6931 13.7565 4.77956L15.9767 7.44044L16.0162 7.51729V4.89963C16.0162 4.82278 16.0474 4.75554 16.1099 4.6979C16.1724 4.64027 16.2464 4.61145 16.3319 4.61145C16.4175 4.61145 16.4915 4.64027 16.554 4.6979C16.6197 4.75554 16.6526 4.82278 16.6526 4.89963V8.25696C16.6526 8.34021 16.6181 8.41385 16.549 8.4779C16.4799 8.53873 16.3994 8.56915 16.3073 8.56915C16.2612 8.56915 16.2152 8.55795 16.1691 8.53553C16.1231 8.50992 16.0836 8.47789 16.0507 8.43947L13.8354 5.793L13.796 5.71135V8.34341C13.796 8.42026 13.7631 8.4875 13.6973 8.54514C13.6348 8.60277 13.5608 8.63159 13.4753 8.63159Z" fill="#3271A6"/>
<path d="M12.7236 6.47343C12.7236 6.29658 12.8709 6.15323 13.0526 6.15323H16.9174C17.099 6.15323 17.2463 6.29658 17.2463 6.47343C17.2463 6.65027 17.099 6.79363 16.9174 6.79363H13.0526C12.8709 6.79363 12.7236 6.65027 12.7236 6.47343Z" fill="#3271A6"/>
<path d="M12.7236 7.27393C12.7236 7.09709 12.8709 6.95373 13.0526 6.95373H16.9174C17.099 6.95373 17.2463 7.09709 17.2463 7.27393C17.2463 7.45078 17.099 7.59414 16.9174 7.59414H13.0526C12.8709 7.59414 12.7236 7.45078 12.7236 7.27393Z" fill="#3271A6"/>
</g>
</svg>
