<svg width="32" height="32" viewBox="0 0 32 32" fill="none" xmlns="http://www.w3.org/2000/svg">
<rect x="0.894531" y="0.0959473" width="31.1053" height="31.1053" rx="6.48026" fill="white" fill-opacity="0.2"/>
<path fill-rule="evenodd" clip-rule="evenodd" d="M8.67081 9.81615C8.67081 8.74302 9.54176 7.87207 10.6149 7.87207C11.688 7.87207 12.559 8.74302 12.559 9.81615C12.559 10.8893 11.688 11.7602 10.6149 11.7602C9.54176 11.7602 8.67081 10.8893 8.67081 9.81615ZM19.1692 12.5382C16.3775 12.5382 14.1137 14.7882 14.1137 17.5617V22.6466C14.1137 23.076 14.4628 23.4251 14.8922 23.4251H16.7058C17.1352 23.4251 17.4843 23.076 17.4843 22.6466V17.5617C17.4843 16.5802 18.3345 15.7956 19.3437 15.8967C20.2198 15.984 20.8532 16.7849 20.8532 17.6654V22.6466C20.8532 23.076 21.2022 23.4251 21.6317 23.4251H23.4453C23.8747 23.4251 24.2238 23.076 24.2238 22.6466V17.5617C24.2238 14.7882 21.96 12.5382 19.1692 12.5382ZM11.781 13.3153H9.44892C9.0195 13.3153 8.67043 13.6635 8.67043 14.093V22.6469C8.67043 23.0763 9.0195 23.4245 9.44892 23.4245H11.781C12.2104 23.4245 12.5586 23.0763 12.5586 22.6469V14.093C12.5586 13.6635 12.2104 13.3153 11.781 13.3153Z" fill="#1E336B"/>
<mask id="mask0_24_4540" style="mask-type:luminance" maskUnits="userSpaceOnUse" x="8" y="7" width="17" height="17">
<path fill-rule="evenodd" clip-rule="evenodd" d="M8.67081 9.81615C8.67081 8.74302 9.54176 7.87207 10.6149 7.87207C11.688 7.87207 12.559 8.74302 12.559 9.81615C12.559 10.8893 11.688 11.7602 10.6149 11.7602C9.54176 11.7602 8.67081 10.8893 8.67081 9.81615ZM19.1692 12.5382C16.3775 12.5382 14.1137 14.7882 14.1137 17.5617V22.6466C14.1137 23.076 14.4628 23.4251 14.8922 23.4251H16.7058C17.1352 23.4251 17.4843 23.076 17.4843 22.6466V17.5617C17.4843 16.5802 18.3345 15.7956 19.3437 15.8967C20.2198 15.984 20.8532 16.7849 20.8532 17.6654V22.6466C20.8532 23.076 21.2022 23.4251 21.6317 23.4251H23.4453C23.8747 23.4251 24.2238 23.076 24.2238 22.6466V17.5617C24.2238 14.7882 21.96 12.5382 19.1692 12.5382ZM11.781 13.3153H9.44892C9.0195 13.3153 8.67043 13.6635 8.67043 14.093V22.6469C8.67043 23.0763 9.0195 23.4245 9.44892 23.4245H11.781C12.2104 23.4245 12.5586 23.0763 12.5586 22.6469V14.093C12.5586 13.6635 12.2104 13.3153 11.781 13.3153Z" fill="white"/>
</mask>
<g mask="url(#mask0_24_4540)">
<rect x="6.07861" y="5.28003" width="20.7368" height="20.7368" fill="#1E336B"/>
</g>
</svg>
