<svg width="16" height="21" viewBox="0 0 16 21" fill="none" xmlns="http://www.w3.org/2000/svg">
<path opacity="0.8" d="M0 10.932C0 9.82744 0.895431 8.93201 2 8.93201H11C12.1046 8.93201 13 9.82744 13 10.932C13 12.0366 12.1046 12.932 11 12.932H2C0.89543 12.932 0 12.0366 0 10.932Z" fill="#419ED2"/>
<path d="M11 12.932H2.16667C0.97005 12.932 0 13.8274 0 14.932C0 16.0366 0.97005 16.932 2.16667 16.932H11C12.1046 16.932 13 16.0366 13 14.932C13 13.8274 12.1046 12.932 11 12.932Z" fill="#4EC3F5"/>
<path opacity="0.8" d="M16 16.932C16 14.7229 14.2091 12.932 12 12.932C11.8007 12.932 11.6047 12.9466 11.4132 12.9747C9.48225 13.2586 8 14.9222 8 16.932C8 19.1411 9.79086 20.932 12 20.932C14.2091 20.932 16 19.1411 16 16.932Z" fill="#419ED2"/>
<path fill-rule="evenodd" clip-rule="evenodd" d="M7.25 4.53556L6.53033 3.81589C6.23744 3.523 5.76256 3.523 5.46967 3.81589C5.17678 4.10878 5.17678 4.58366 5.46967 4.87655L6.76256 6.16944C7.44598 6.85286 8.55402 6.85286 9.23744 6.16944L10.5303 4.87655C10.8232 4.58366 10.8232 4.10878 10.5303 3.81589C10.2374 3.523 9.76256 3.523 9.46967 3.81589L8.75 4.53556L8.75 0.932007C8.75 0.517793 8.41421 0.182007 8 0.182007C7.58579 0.182007 7.25 0.517793 7.25 0.932007L7.25 4.53556Z" fill="#4EC3F5"/>
</svg>
