<svg width="20" height="20" viewBox="0 0 20 20" fill="none" xmlns="http://www.w3.org/2000/svg">
<path opacity="0.8" d="M18 15.9995V5.99951H2V15.9995C2 18.2087 3.79086 19.9995 6 19.9995H14C16.2091 19.9995 18 18.2087 18 15.9995Z" fill="#1E336B"/>
<path d="M14.7687 -0.000488281H5.23126C3.4139 -0.000488281 1.77964 1.24427 1.10469 3.14256L0.346712 5.27438C0.117265 5.9197 -0.0413381 6.61025 0.126015 7.27439C0.52236 8.84727 1.80824 9.99951 3.33333 9.99951C5.17428 9.99951 6.66667 8.32058 6.66667 6.24951C6.66667 8.32058 8.15905 9.99951 10 9.99951C11.841 9.99951 13.3333 8.32058 13.3333 6.24951C13.3333 8.32058 14.8257 9.99951 16.6667 9.99951C18.1918 9.99951 19.4776 8.84727 19.874 7.27439C20.0413 6.61025 19.8827 5.9197 19.6533 5.27438L18.8953 3.14256C18.2204 1.24427 16.5861 -0.000488281 14.7687 -0.000488281Z" fill="#1E336B"/>
<path d="M8.12179 16.9995C7.99415 16.9995 7.8837 16.9565 7.79042 16.8705C7.69715 16.7845 7.65051 16.6841 7.65051 16.5694V11.5228C7.65051 11.3986 7.69961 11.291 7.79779 11.2002C7.90088 11.1046 8.02115 11.0569 8.15861 11.0569C8.31079 11.0569 8.43842 11.1214 8.54151 11.2504L11.8552 15.2217L11.9141 15.3364V11.4296C11.9141 11.3149 11.9607 11.2146 12.054 11.1285C12.1472 11.0425 12.2577 10.9995 12.3853 10.9995C12.513 10.9995 12.6234 11.0425 12.7167 11.1285C12.8149 11.2146 12.864 11.3149 12.864 11.4296V16.4404C12.864 16.5646 12.8124 16.6745 12.7093 16.7701C12.6062 16.8609 12.486 16.9063 12.3485 16.9063C12.2798 16.9063 12.2111 16.8896 12.1423 16.8561C12.0736 16.8179 12.0147 16.7701 11.9656 16.7128L8.65933 12.763L8.60042 12.6411V16.5694C8.60042 16.6841 8.55133 16.7845 8.45315 16.8705C8.35988 16.9565 8.24942 16.9995 8.12179 16.9995Z" fill="#1E336B"/>
<path d="M7 13.7785C7 13.5145 7.21979 13.3006 7.49091 13.3006H13.2591C13.5302 13.3006 13.75 13.5145 13.75 13.7785C13.75 14.0424 13.5302 14.2564 13.2591 14.2564H7.49091C7.21979 14.2564 7 14.0424 7 13.7785Z" fill="#1E336B"/>
<path d="M7 14.9732C7 14.7093 7.21979 14.4953 7.49091 14.4953H13.2591C13.5302 14.4953 13.75 14.7093 13.75 14.9732C13.75 15.2372 13.5302 15.4511 13.2591 15.4511H7.49091C7.21979 15.4511 7 15.2372 7 14.9732Z" fill="#1E336B"/>
</svg>
