<svg width="24" height="24" viewBox="0 0 24 24" fill="none" xmlns="http://www.w3.org/2000/svg">
<path opacity="0.8" d="M13 3.99951H11C6.02944 3.99951 2 8.02895 2 12.9995V17.9995C2 20.2087 3.79086 21.9995 6 21.9995H13C17.9706 21.9995 22 17.9701 22 12.9995C22 8.02895 17.9706 3.99951 13 3.99951Z" fill="#1E336B"/>
<path d="M22 5.99951C22 8.20865 20.2091 9.99951 18 9.99951C15.7909 9.99951 14 8.20865 14 5.99951C14 3.79037 15.7909 1.99951 18 1.99951C20.2091 1.99951 22 3.79037 22 5.99951Z" fill="#1E336B"/>
<path fill-rule="evenodd" clip-rule="evenodd" d="M7.25 10.9995C7.25 10.5853 7.58579 10.2495 8 10.2495H12C12.4142 10.2495 12.75 10.5853 12.75 10.9995C12.75 11.4137 12.4142 11.7495 12 11.7495H8C7.58579 11.7495 7.25 11.4137 7.25 10.9995ZM7.25 14.9995C7.25 14.5853 7.58579 14.2495 8 14.2495H16C16.4142 14.2495 16.75 14.5853 16.75 14.9995C16.75 15.4137 16.4142 15.7495 16 15.7495H8C7.58579 15.7495 7.25 15.4137 7.25 14.9995Z" fill="#1E336B"/>
</svg>
