<svg width="17" height="24" viewBox="0 0 17 24" fill="none" xmlns="http://www.w3.org/2000/svg">
<path opacity="0.8" d="M12 -0.000488281H2.4C1.07452 -0.000488281 0 1.07403 0 2.39951V21.5995C0 22.925 1.07452 23.9995 2.4 23.9995H12C13.3255 23.9995 14.4 22.925 14.4 21.5995V2.39951C14.4 1.07403 13.3255 -0.000488281 12 -0.000488281Z" fill="#1E336B"/>
<path d="M7.2002 5.99951H14.4002C15.7257 5.99951 16.8002 7.07403 16.8002 8.39951V13.1995C16.8002 14.525 15.7257 15.5995 14.4002 15.5995H7.2002V5.99951Z" fill="#1E336B"/>
<path d="M8.4 20.3995C8.4 21.0622 7.86274 21.5995 7.2 21.5995C6.53726 21.5995 6 21.0622 6 20.3995C6 19.7367 6.53726 19.1995 7.2 19.1995C7.86274 19.1995 8.4 19.7367 8.4 20.3995Z" fill="#1E336B"/>
<path opacity="0.4" d="M7.1998 10.1994L16.7998 10.1994L16.7998 8.39941L7.1998 8.39941L7.1998 10.1994Z" fill="#1E336B"/>
</svg>
