<svg width="20" height="21" viewBox="0 0 20 21" fill="none" xmlns="http://www.w3.org/2000/svg">
<path opacity="0.4" fill-rule="evenodd" clip-rule="evenodd" d="M0 0.75C0 0.335786 0.335786 0 0.75 0H2.75C4.26878 0 5.5 1.23122 5.5 2.75V3.75C5.5 4.16421 5.16421 4.5 4.75 4.5C4.33579 4.5 4 4.16421 4 3.75V2.75C4 2.05964 3.44036 1.5 2.75 1.5H0.75C0.335786 1.5 0 1.16421 0 0.75Z" fill="#4EC3F5"/>
<path opacity="0.4" d="M4 2.75H16C18.2091 2.75 20 4.54086 20 6.75V11.75C20 13.9591 18.2091 15.75 16 15.75H8C5.79086 15.75 4 13.9591 4 11.75V2.75Z" fill="#4EC3F5"/>
<circle cx="7.5" cy="19.25" r="1.5" fill="#4EC3F5"/>
<circle cx="16.5" cy="19.25" r="1.5" fill="#4EC3F5"/>
<path d="M16 2.75H4V6.75H20C20 4.54086 18.2091 2.75 16 2.75Z" fill="#4EC3F5"/>
</svg>
