<svg width="16" height="20" viewBox="0 0 16 20" fill="none" xmlns="http://www.w3.org/2000/svg">
<path opacity="0.8" d="M13 -0.000488281H3C1.34315 -0.000488281 0 1.34266 0 2.99951V16.9995H16V2.99951C16 1.34266 14.6569 -0.000488281 13 -0.000488281Z" fill="#1E336B"/>
<path fill-rule="evenodd" clip-rule="evenodd" d="M3.25 4.99951C3.25 4.5853 3.58579 4.24951 4 4.24951H12C12.4142 4.24951 12.75 4.5853 12.75 4.99951C12.75 5.41373 12.4142 5.74951 12 5.74951H4C3.58579 5.74951 3.25 5.41373 3.25 4.99951Z" fill="#1E336B"/>
<path fill-rule="evenodd" clip-rule="evenodd" d="M3.25 8.99951C3.25 8.5853 3.58579 8.24951 4 8.24951H8C8.41421 8.24951 8.75 8.5853 8.75 8.99951C8.75 9.41373 8.41421 9.74951 8 9.74951H4C3.58579 9.74951 3.25 9.41373 3.25 8.99951Z" fill="#1E336B"/>
<path d="M16 13.9995H3C1.34315 13.9995 0 15.3427 0 16.9995C0 18.6564 1.34315 19.9995 3 19.9995H13C14.6569 19.9995 16 18.6564 16 16.9995V13.9995Z" fill="#1E336B"/>
</svg>
