<svg width="33" height="32" viewBox="0 0 33 32" fill="none" xmlns="http://www.w3.org/2000/svg">
<rect x="0.947266" y="0.0959473" width="31.1053" height="31.1053" rx="6.48026" fill="white" fill-opacity="0.2"/>
<path fill-rule="evenodd" clip-rule="evenodd" d="M13.1103 22.5609C19.3711 22.5609 22.9931 17.6998 22.9931 13.0867C22.9931 12.9597 23.8831 12.1959 24.2641 10.6035C24.3419 10.2804 24.0274 10.0255 23.731 10.1611C22.9706 10.5102 22.1991 10.2337 21.8638 9.83624C20.5747 8.43045 18.4189 8.36306 17.0477 9.68503C16.1638 10.5378 15.7888 11.808 16.0627 13.0202C13.1673 13.2267 11.1792 11.8546 9.54441 9.97362C9.33358 9.7291 8.94217 9.85784 8.89811 10.181C8.65618 11.9799 8.58014 16.3537 12.9141 18.8654C12.1616 19.9472 10.6884 20.5857 9.04845 20.8596C8.68556 20.9209 8.59915 21.4238 8.93094 21.5863C10.2305 22.2256 11.6587 22.56 13.1103 22.5583" fill="#1E336B"/>
<mask id="mask0_24_4536" style="mask-type:luminance" maskUnits="userSpaceOnUse" x="8" y="8" width="17" height="15">
<path fill-rule="evenodd" clip-rule="evenodd" d="M13.1103 22.5609C19.3711 22.5609 22.9931 17.6998 22.9931 13.0867C22.9931 12.9597 23.8831 12.1959 24.2641 10.6035C24.3419 10.2804 24.0274 10.0255 23.731 10.1611C22.9706 10.5102 22.1991 10.2337 21.8638 9.83624C20.5747 8.43045 18.4189 8.36306 17.0477 9.68503C16.1638 10.5378 15.7888 11.808 16.0627 13.0202C13.1673 13.2267 11.1792 11.8546 9.54441 9.97362C9.33358 9.7291 8.94217 9.85784 8.89811 10.181C8.65618 11.9799 8.58014 16.3537 12.9141 18.8654C12.1616 19.9472 10.6884 20.5857 9.04845 20.8596C8.68556 20.9209 8.59915 21.4238 8.93094 21.5863C10.2305 22.2256 11.6587 22.56 13.1103 22.5583" fill="white"/>
</mask>
<g mask="url(#mask0_24_4536)">
<rect x="6.13135" y="5.28003" width="20.7368" height="20.7368" fill="#1E336B"/>
</g>
</svg>
