<svg width="32" height="32" viewBox="0 0 32 32" fill="none" xmlns="http://www.w3.org/2000/svg">
<rect y="0.0959473" width="31.1053" height="31.1053" rx="6.48026" fill="white" fill-opacity="0.2"/>
<path fill-rule="evenodd" clip-rule="evenodd" d="M17.8136 22.1737C18.7199 20.8794 19.6626 18.976 19.851 16.5126H22.4042C22.0733 19.1496 20.2536 21.3253 17.8136 22.1737ZM8.69987 16.5126H11.2851C11.4631 18.9855 12.3936 20.8812 13.3121 22.1815C10.8608 21.3374 9.03253 19.1574 8.69987 16.5126ZM13.3389 9.1068C12.4299 10.4011 11.4786 12.3106 11.2885 14.7844H8.69987C9.03339 12.1301 10.8746 9.94319 13.3389 9.1068ZM13.0287 14.7845C13.2931 11.9574 14.7395 9.9891 15.575 9.07927C16.439 10.0047 17.863 11.9548 18.1092 14.7845H13.0287ZM13.0296 16.5126H18.1118C17.8474 19.344 16.3976 21.3123 15.5629 22.2221C14.6583 21.2631 13.2706 19.3397 13.0296 16.5126ZM22.4042 14.7846H19.8535C19.6764 12.3229 18.7562 10.4333 17.8421 9.13465C20.2683 9.99004 22.075 12.1579 22.4042 14.7846ZM24.1928 15.6484C24.1928 10.8928 20.3297 7.02361 15.5767 7.00978C15.5732 7.00978 15.5697 7.00892 15.5654 7.00892C15.562 7.00892 15.5568 7.00806 15.5525 7.00806C10.7882 7.00806 6.91211 10.885 6.91211 15.6484C6.91211 20.4127 10.7882 24.2888 15.5525 24.2888C15.5576 24.2888 15.562 24.2879 15.5654 24.2879C15.5671 24.2879 15.568 24.2888 15.5697 24.2888C15.5723 24.2888 15.5749 24.287 15.5767 24.287C20.3297 24.2741 24.1928 20.4041 24.1928 15.6484Z" fill="#1E336B"/>
<mask id="mask0_24_4532" style="mask-type:luminance" maskUnits="userSpaceOnUse" x="6" y="7" width="19" height="18">
<path fill-rule="evenodd" clip-rule="evenodd" d="M17.8136 22.1737C18.7199 20.8794 19.6626 18.976 19.851 16.5126H22.4042C22.0733 19.1496 20.2536 21.3253 17.8136 22.1737ZM8.69987 16.5126H11.2851C11.4631 18.9855 12.3936 20.8812 13.3121 22.1815C10.8608 21.3374 9.03253 19.1574 8.69987 16.5126ZM13.3389 9.1068C12.4299 10.4011 11.4786 12.3106 11.2885 14.7844H8.69987C9.03339 12.1301 10.8746 9.94319 13.3389 9.1068ZM13.0287 14.7845C13.2931 11.9574 14.7395 9.9891 15.575 9.07927C16.439 10.0047 17.863 11.9548 18.1092 14.7845H13.0287ZM13.0296 16.5126H18.1118C17.8474 19.344 16.3976 21.3123 15.5629 22.2221C14.6583 21.2631 13.2706 19.3397 13.0296 16.5126ZM22.4042 14.7846H19.8535C19.6764 12.3229 18.7562 10.4333 17.8421 9.13465C20.2683 9.99004 22.075 12.1579 22.4042 14.7846ZM24.1928 15.6484C24.1928 10.8928 20.3297 7.02361 15.5767 7.00978C15.5732 7.00978 15.5697 7.00892 15.5654 7.00892C15.562 7.00892 15.5568 7.00806 15.5525 7.00806C10.7882 7.00806 6.91211 10.885 6.91211 15.6484C6.91211 20.4127 10.7882 24.2888 15.5525 24.2888C15.5576 24.2888 15.562 24.2879 15.5654 24.2879C15.5671 24.2879 15.568 24.2888 15.5697 24.2888C15.5723 24.2888 15.5749 24.287 15.5767 24.287C20.3297 24.2741 24.1928 20.4041 24.1928 15.6484Z" fill="white"/>
</mask>
<g mask="url(#mask0_24_4532)">
<rect x="5.18408" y="5.28003" width="20.7368" height="20.7368" fill="#1E336B"/>
</g>
</svg>
